<mxfile host="app.diagrams.net" modified="2023-12-11T15:04:48.375Z" agent="Mozilla/5.0 (Macintosh; Intel Mac OS X 10_15_7) AppleWebKit/537.36 (KHTML, like Gecko) Chrome/120.0.0.0 Safari/537.36" etag="NwBmd6C5vPgplctOEfN7" version="22.1.7" type="device">
  <diagram name="Page-1" id="3NZP-CWDgKf4xzH1paXa">
    <mxGraphModel dx="1247" dy="588" grid="1" gridSize="10" guides="1" tooltips="1" connect="1" arrows="1" fold="1" page="1" pageScale="1" pageWidth="1100" pageHeight="850" math="0" shadow="0">
      <root>
        <mxCell id="0" />
        <mxCell id="1" parent="0" />
        <mxCell id="OBixX9FioB8ukmCa500w-1" value="&lt;h1&gt;claim request process&lt;/h1&gt;" style="text;html=1;align=center;verticalAlign=middle;resizable=0;points=[];autosize=1;strokeColor=none;fillColor=none;" parent="1" vertex="1">
          <mxGeometry x="310" y="20" width="280" height="70" as="geometry" />
        </mxCell>
        <mxCell id="OBixX9FioB8ukmCa500w-2" value="" style="shape=umlLifeline;perimeter=lifelinePerimeter;whiteSpace=wrap;html=1;container=1;dropTarget=0;collapsible=0;recursiveResize=0;outlineConnect=0;portConstraint=eastwest;newEdgeStyle={&quot;curved&quot;:0,&quot;rounded&quot;:0};participant=umlActor;" parent="1" vertex="1">
          <mxGeometry x="100" y="125" width="20" height="555" as="geometry" />
        </mxCell>
        <mxCell id="OBixX9FioB8ukmCa500w-3" value="table_ClaimRecordOrProfile" style="shape=umlLifeline;perimeter=lifelinePerimeter;whiteSpace=wrap;html=1;container=1;dropTarget=0;collapsible=0;recursiveResize=0;outlineConnect=0;portConstraint=eastwest;newEdgeStyle={&quot;curved&quot;:0,&quot;rounded&quot;:0};" parent="1" vertex="1">
          <mxGeometry x="210" y="125" width="190" height="555" as="geometry" />
        </mxCell>
        <mxCell id="wRbiM2tr3m5VjO5nBXlU-21" value="" style="html=1;points=[[0,0,0,0,5],[0,1,0,0,-5],[1,0,0,0,5],[1,1,0,0,-5]];perimeter=orthogonalPerimeter;outlineConnect=0;targetShapes=umlLifeline;portConstraint=eastwest;newEdgeStyle={&quot;curved&quot;:0,&quot;rounded&quot;:0};" vertex="1" parent="OBixX9FioB8ukmCa500w-3">
          <mxGeometry x="90" y="380" width="10" height="130" as="geometry" />
        </mxCell>
        <mxCell id="OBixX9FioB8ukmCa500w-7" value="" style="endArrow=classic;html=1;rounded=0;" parent="1" edge="1" target="OBixX9FioB8ukmCa500w-3">
          <mxGeometry width="50" height="50" relative="1" as="geometry">
            <mxPoint x="109.5" y="200" as="sourcePoint" />
            <mxPoint x="219.5" y="200" as="targetPoint" />
          </mxGeometry>
        </mxCell>
        <mxCell id="OBixX9FioB8ukmCa500w-11" value="claim request" style="edgeLabel;html=1;align=center;verticalAlign=middle;resizable=0;points=[];" parent="OBixX9FioB8ukmCa500w-7" vertex="1" connectable="0">
          <mxGeometry x="-0.1545" y="-1" relative="1" as="geometry">
            <mxPoint y="-11" as="offset" />
          </mxGeometry>
        </mxCell>
        <mxCell id="OBixX9FioB8ukmCa500w-12" value="userMakingClaim" style="text;html=1;align=center;verticalAlign=middle;resizable=0;points=[];autosize=1;strokeColor=none;fillColor=none;" parent="1" vertex="1">
          <mxGeometry x="50" y="95" width="120" height="30" as="geometry" />
        </mxCell>
        <mxCell id="wRbiM2tr3m5VjO5nBXlU-1" value="&lt;div style=&quot;text-align: left;&quot;&gt;&lt;span style=&quot;background-color: initial;&quot;&gt;-userId&lt;/span&gt;&lt;/div&gt;&lt;div style=&quot;text-align: left;&quot;&gt;&lt;span style=&quot;background-color: initial;&quot;&gt;-publicProfileReceiver&lt;/span&gt;&lt;br&gt;&lt;/div&gt;&lt;div style=&quot;text-align: left;&quot;&gt;&lt;span style=&quot;background-color: initial;&quot;&gt;-publicProfileIdReceiver&lt;/span&gt;&lt;/div&gt;&lt;div style=&quot;text-align: left;&quot;&gt;&lt;span style=&quot;background-color: initial;&quot;&gt;-publicProfileTargetId&lt;/span&gt;&lt;/div&gt;&lt;div style=&quot;text-align: left;&quot;&gt;&lt;span style=&quot;background-color: initial;&quot;&gt;-recordIdList[]&lt;/span&gt;&lt;/div&gt;" style="text;html=1;align=center;verticalAlign=middle;resizable=0;points=[];autosize=1;strokeColor=none;fillColor=none;" vertex="1" parent="1">
          <mxGeometry x="130" y="200" width="150" height="90" as="geometry" />
        </mxCell>
        <mxCell id="wRbiM2tr3m5VjO5nBXlU-3" value="" style="shape=umlLifeline;perimeter=lifelinePerimeter;whiteSpace=wrap;html=1;container=1;dropTarget=0;collapsible=0;recursiveResize=0;outlineConnect=0;portConstraint=eastwest;newEdgeStyle={&quot;curved&quot;:0,&quot;rounded&quot;:0};participant=umlActor;" vertex="1" parent="1">
          <mxGeometry x="760" y="130" width="20" height="550" as="geometry" />
        </mxCell>
        <mxCell id="wRbiM2tr3m5VjO5nBXlU-4" value="GlobalAdmin" style="text;html=1;align=center;verticalAlign=middle;resizable=0;points=[];autosize=1;strokeColor=none;fillColor=none;" vertex="1" parent="1">
          <mxGeometry x="725" y="95" width="90" height="30" as="geometry" />
        </mxCell>
        <mxCell id="wRbiM2tr3m5VjO5nBXlU-9" value="" style="shape=umlLifeline;perimeter=lifelinePerimeter;whiteSpace=wrap;html=1;container=1;dropTarget=0;collapsible=0;recursiveResize=0;outlineConnect=0;portConstraint=eastwest;newEdgeStyle={&quot;curved&quot;:0,&quot;rounded&quot;:0};participant=umlActor;" vertex="1" parent="1">
          <mxGeometry x="550" y="130" width="20" height="550" as="geometry" />
        </mxCell>
        <mxCell id="wRbiM2tr3m5VjO5nBXlU-10" value="AdminPublicProfile" style="text;html=1;align=center;verticalAlign=middle;resizable=0;points=[];autosize=1;strokeColor=none;fillColor=none;" vertex="1" parent="1">
          <mxGeometry x="500" y="95" width="120" height="30" as="geometry" />
        </mxCell>
        <mxCell id="wRbiM2tr3m5VjO5nBXlU-14" value="alt" style="shape=umlFrame;whiteSpace=wrap;html=1;pointerEvents=0;" vertex="1" parent="1">
          <mxGeometry x="190" y="300" width="420" height="140" as="geometry" />
        </mxCell>
        <mxCell id="wRbiM2tr3m5VjO5nBXlU-15" value="[if public profile is&lt;br&gt;associated&lt;br&gt;&amp;nbsp;to a user]" style="text;html=1;align=center;verticalAlign=middle;resizable=0;points=[];autosize=1;strokeColor=none;fillColor=none;" vertex="1" parent="1">
          <mxGeometry x="190" y="355" width="120" height="60" as="geometry" />
        </mxCell>
        <mxCell id="wRbiM2tr3m5VjO5nBXlU-22" value="ApproveClaim()&lt;br&gt;- approve: bool&lt;br&gt;- reasonText: string" style="html=1;verticalAlign=bottom;endArrow=block;curved=0;rounded=0;entryX=1;entryY=0;entryDx=0;entryDy=5;entryPerimeter=0;" edge="1" target="wRbiM2tr3m5VjO5nBXlU-21" parent="1" source="wRbiM2tr3m5VjO5nBXlU-3">
          <mxGeometry x="-0.0008" relative="1" as="geometry">
            <mxPoint x="769.5" y="520" as="sourcePoint" />
            <mxPoint x="310" y="520" as="targetPoint" />
            <mxPoint as="offset" />
          </mxGeometry>
        </mxCell>
        <mxCell id="wRbiM2tr3m5VjO5nBXlU-31" value="return" style="html=1;verticalAlign=bottom;endArrow=open;dashed=1;endSize=8;curved=0;rounded=0;exitX=1;exitY=1;exitDx=0;exitDy=-5;exitPerimeter=0;" edge="1" parent="1" source="wRbiM2tr3m5VjO5nBXlU-21" target="wRbiM2tr3m5VjO5nBXlU-3">
          <mxGeometry relative="1" as="geometry">
            <mxPoint x="769.5" y="808.2449999999999" as="targetPoint" />
            <mxPoint x="312.1300000000001" y="808.2449999999999" as="sourcePoint" />
          </mxGeometry>
        </mxCell>
        <mxCell id="wRbiM2tr3m5VjO5nBXlU-39" value="sendNotification()" style="html=1;verticalAlign=bottom;endArrow=block;curved=0;rounded=0;entryX=0.498;entryY=0.249;entryDx=0;entryDy=0;entryPerimeter=0;" edge="1" parent="1" source="OBixX9FioB8ukmCa500w-3" target="wRbiM2tr3m5VjO5nBXlU-9">
          <mxGeometry width="80" relative="1" as="geometry">
            <mxPoint x="304.63043478260875" y="321" as="sourcePoint" />
            <mxPoint x="559.5" y="321" as="targetPoint" />
          </mxGeometry>
        </mxCell>
        <mxCell id="wRbiM2tr3m5VjO5nBXlU-40" value="" style="html=1;points=[[0,0,0,0,5],[0,1,0,0,-5],[1,0,0,0,5],[1,1,0,0,-5]];perimeter=orthogonalPerimeter;outlineConnect=0;targetShapes=umlLifeline;portConstraint=eastwest;newEdgeStyle={&quot;curved&quot;:0,&quot;rounded&quot;:0};" vertex="1" parent="1">
          <mxGeometry x="300" y="340" width="10" height="75" as="geometry" />
        </mxCell>
        <mxCell id="wRbiM2tr3m5VjO5nBXlU-41" value="-ActualPublicProfileAgreement: {boolean, text}&amp;nbsp;" style="html=1;verticalAlign=bottom;endArrow=block;curved=0;rounded=0;entryX=1;entryY=0;entryDx=0;entryDy=5;entryPerimeter=0;" edge="1" target="wRbiM2tr3m5VjO5nBXlU-40" parent="1" source="wRbiM2tr3m5VjO5nBXlU-9">
          <mxGeometry relative="1" as="geometry">
            <mxPoint x="559.5" y="351.9999999999999" as="sourcePoint" />
            <mxPoint x="300" y="351.9999999999999" as="targetPoint" />
          </mxGeometry>
        </mxCell>
        <mxCell id="wRbiM2tr3m5VjO5nBXlU-42" value="return" style="html=1;verticalAlign=bottom;endArrow=open;dashed=1;endSize=8;curved=0;rounded=0;exitX=1;exitY=1;exitDx=0;exitDy=-5;exitPerimeter=0;" edge="1" source="wRbiM2tr3m5VjO5nBXlU-40" parent="1" target="wRbiM2tr3m5VjO5nBXlU-9">
          <mxGeometry relative="1" as="geometry">
            <mxPoint x="400" y="420" as="targetPoint" />
          </mxGeometry>
        </mxCell>
        <mxCell id="wRbiM2tr3m5VjO5nBXlU-44" value="" style="html=1;points=[[0,0,0,0,5],[0,1,0,0,-5],[1,0,0,0,5],[1,1,0,0,-5]];perimeter=orthogonalPerimeter;outlineConnect=0;targetShapes=umlLifeline;portConstraint=eastwest;newEdgeStyle={&quot;curved&quot;:0,&quot;rounded&quot;:0};" vertex="1" parent="1">
          <mxGeometry x="305" y="564" width="10" height="40" as="geometry" />
        </mxCell>
        <mxCell id="wRbiM2tr3m5VjO5nBXlU-45" value="resolve(approve)" style="html=1;align=left;spacingLeft=2;endArrow=block;rounded=0;edgeStyle=orthogonalEdgeStyle;curved=0;rounded=0;exitX=0.865;exitY=0.288;exitDx=0;exitDy=0;exitPerimeter=0;" edge="1" parent="1" source="wRbiM2tr3m5VjO5nBXlU-21">
          <mxGeometry relative="1" as="geometry">
            <mxPoint x="310" y="543" as="sourcePoint" />
            <Array as="points">
              <mxPoint x="340" y="542" />
              <mxPoint x="340" y="573" />
            </Array>
            <mxPoint x="315" y="573.0000000000002" as="targetPoint" />
          </mxGeometry>
        </mxCell>
      </root>
    </mxGraphModel>
  </diagram>
</mxfile>
